# xmcd
#
# Track frame offsets:
#	150
#	18230
#	37424
#	57321
#	71205
#	90191
#	109439
#	125522
#	138954
#	158278
#	179715
#	205820
#	218371
#	239681
#	259830
#	279008
#	296845
#	316793
#
# Disc length: 4420 seconds
#
# Revision: 1
# Processed by: cddbd v1.5.1PL2 Copyright (c) Steve Scherf et al.
# Submitted via: audiograbber 1.83.01
#
DISCID=09114212
DTITLE=Various Artist - Platinum Disc 16
DYEAR=1900
DGENRE=Misc
TTITLE0=Robert Palmer - Addicted To Love
TTITLE1=Spin Doctors - Two Princes
TTITLE2=Tom Cochrane - Life Is A Highway
TTITLE3=Van Morrison - Brown Eyed Girl
TTITLE4=ZZ Top - Sharp Dressed Man
TTITLE5=All-4-One - I Swear
TTITLE6=Art Garfunkel - I Only Have Eyes For You
TTITLE7=Ben E King - Stand By Me
TTITLE8=Bette Midler - Wind Beneath My Wings
TTITLE9=Billy Joel - Just The Way You Are
TTITLE10=Boyz II Men - End Of The Road
TTITLE11=Boyz II Men - It's So Hard To Say Goodbye To Yesterday
TTITLE12=Celine Dion - The Power Of Love
TTITLE13=Chaka Khan - Through The Fire
TTITLE14=Chris DeBurgh - Lady In Red
TTITLE15=Joe Cocker w Jennifer Warnes - Up Where We Belong
TTITLE16=Diana Ross w Lionel Richey - Endless Love
TTITLE17=Elvis Presley - Can't Help Falling In Love
EXTD=
EXTT0=
EXTT1=
EXTT2=
EXTT3=
EXTT4=
EXTT5=
EXTT6=
EXTT7=
EXTT8=
EXTT9=
EXTT10=
EXTT11=
EXTT12=
EXTT13=
EXTT14=
EXTT15=
EXTT16=
EXTT17=
PLAYORDER=
